{
  "accessors": [
    {
      "bufferView": 0,
      "byteOffset": 0,
      "componentType": 5123,
      "count": 9723,
      "type": "SCALAR",
      "max": [
        7798
      ],
      "min": [
        0
      ]
    },
    {
      "bufferView": 1,
      "byteOffset": 0,
      "componentType": 5126,
      "count": 7799,
      "type": "VEC3",
      "max": [
        8.917306900024414,
        16.218505859375,
        7.692282199859619
      ],
      "min": [
        -9.175297737121582,
        6.50653076171875,
        -5.9382548332214355
      ],
      "name": "POSITION"
    },
    {
      "bufferView": 1,
      "byteOffset": 12,
      "componentType": 5126,
      "count": 7799,
      "type": "VEC2",
      "max": [
        0.9826350212097168,
        -0.019460000097751617
      ],
      "min": [
        0.025451000779867172,
        -0.9895859956741333
      ],
      "name": "TEXCOORD_0"
    },
    {
      "bufferView": 1,
      "byteOffset": 20,
      "componentType": 5126,
      "count": 7799,
      "type": "VEC3",
      "max": [
        0.9997308850288391,
        0.9971010684967041,
        0.9999405741691589
      ],
      "min": [
        -1.0000042915344238,
        -0.9999123811721802,
        -0.9984163641929626
      ],
      "name": "NORMAL"
    }
  ],
  "asset": {
    "generator": "Aspose.3D 23.7.0",
    "version": "2.0"
  },
  "buffers": [
    {
      "name": "Teeths",
      "byteLength": 330584,
      "uri": "data:application/octet-stream;base64,"
    }
  ],
  "bufferViews": [
    {
      "buffer": 0,
      "byteOffset": 0,
      "byteLength": 19448,
      "target": 34963
    },
    {
      "buffer": 0,
      "byteOffset": 19448,
      "byteLength": 311136,
      "byteStride": 32,
      "target": 34962
    }
  ],
  "meshes": [
    {
      "primitives": [
        {
          "attributes": {
            "POSITION": 1,
            "TEXCOORD_0": 2,
            "NORMAL": 3
          },
          "indices": 0,
          "mode": 4,
          "material": 0
        }
      ]
    }
  ],
  "nodes": [
    {
      "mesh": 0,
      "name": "TeethUp1"
    }
  ],
  "scene": 0,
  "scenes": [
    {
      "nodes": [
        0
      ]
    }
  ],
  "materials": [
    {
      "name": "default",
      "emissiveFactor": [
        0,
        0,
        0
      ],
      "alphaMode": "OPAQUE",
      "doubleSided": false
    }
  ]
}
