{
  "accessors": [
    {
      "bufferView": 0,
      "byteOffset": 0,
      "componentType": 5123,
      "count": 36000,
      "type": "SCALAR",
      "max": [
        29590
      ],
      "min": [
        0
      ]
    },
    {
      "bufferView": 1,
      "byteOffset": 0,
      "componentType": 5126,
      "count": 29591,
      "type": "VEC3",
      "max": [
        30.546100616455078,
        28.249399185180664,
        3.667819023132324
      ],
      "min": [
        -31.117700576782227,
        -27.83139991760254,
        -15.40820026397705
      ],
      "name": "POSITION"
    },
    {
      "bufferView": 1,
      "byteOffset": 12,
      "componentType": 5126,
      "count": 29591,
      "type": "VEC3",
      "max": [
        0.9995566010475159,
        0.9996722340583801,
        0.9999780058860779
      ],
      "min": [
        -0.9994165897369385,
        -0.9965448975563049,
        -0.7885628342628479
      ],
      "name": "NORMAL"
    }
  ],
  "asset": {
    "generator": "Aspose.3D 23.6.0",
    "version": "2.0"
  },
  "buffers": [
    {
      "name": "teeth",
      "byteLength": 936000,
      "uri": "data:application/octet-stream;base64,"
    }
  ],
  "bufferViews": [
    {
      "buffer": 0,
      "byteOffset": 0,
      "byteLength": 72000,
      "target": 34963
    },
    {
      "buffer": 0,
      "byteOffset": 72000,
      "byteLength": 864000,
      "byteStride": 24,
      "target": 34962
    }
  ],
  "meshes": [
    {
      "primitives": [
        {
          "attributes": {
            "POSITION": 1,
            "NORMAL": 2
          },
          "indices": 0,
          "mode": 4,
          "material": 0
        }
      ],
      "name": ""
    }
  ],
  "nodes": [
    {
      "mesh": 0,
      "name": "model"
    }
  ],
  "scene": 0,
  "scenes": [
    {
      "nodes": [
        0
      ]
    }
  ],
  "materials": [
    {
      "name": "default",
      "emissiveFactor": [
        0,
        0,
        0
      ],
      "alphaMode": "OPAQUE",
      "doubleSided": false
    }
  ]
}
